<svg width="50px" height="50px" version="1.1" xmlns="http://www.w3.org/2000/svg" xmlns:xlink="http://www.w3.org/1999/xlink" xml:space="preserve" xmlns:serif="http://www.serif.com/" style="fill-rule:evenodd;clip-rule:evenodd;stroke-linejoin:round;stroke-miterlimit:2;">
    <g transform="matrix(0.378538,0,0,0.378538,-34.4656,-12.4433)">
        <path d="M98.37,90.78C98.86,89.27 100.68,89.61 101.89,89.24C99.27,92.78 97.54,96.89 98.57,101.37C95.89,97.87 98.1,93.6 99.9,90.29L98.37,90.78Z" style="fill:rgb(157,164,177);fill-rule:nonzero;"></path>
    </g>
    <g transform="matrix(0.378538,0,0,0.378538,-34.4656,-12.4433)">
        <path d="M129.26,55.35C130.38,55.37 131.5,55.4 132.62,55.43C132.56,56.44 132.5,57.44 132.43,58.44C131.44,58.5 130.45,58.55 129.46,58.61C129.39,57.52 129.32,56.44 129.26,55.35Z" style="fill:rgb(0,172,254);fill-rule:nonzero;"></path>
    </g>
    <g transform="matrix(0.378538,0,0,0.378538,-34.4656,-12.4433)">
        <path d="M148.3,62.45C151.1,61.79 154.54,62.11 155.98,64.99C158.8,69.37 154.07,75.35 149.12,73.68C143.58,72.79 143.03,64.13 148.3,62.45Z" style="fill:rgb(0,172,254);fill-rule:nonzero;"></path>
    </g>
    <g transform="matrix(0.378538,0,0,0.378538,-34.4656,-12.4433)">
        <path d="M115.15,67.88C115.01,66.19 116.61,65.4 117.86,64.74C118.66,65.58 119.85,66.18 120.38,67.25C120.09,68.56 118.64,69.24 117.85,70.23C116.88,69.54 115.7,69 115.15,67.88Z" style="fill:rgb(0,172,254);fill-rule:nonzero;"></path>
    </g>
    <g transform="matrix(0.378538,0,0,0.378538,-34.4656,-12.4433)">
        <path d="M128.27,76.02C129.68,74.44 131.2,72.95 132.94,71.73C134.21,73.28 136.88,74.33 136.72,76.63C135.68,78.18 134.21,79.36 132.91,80.68C131.26,79.23 129.71,77.68 128.27,76.02Z" style="fill:rgb(0,172,254);fill-rule:nonzero;"></path>
    </g>
    <g transform="matrix(0.378538,0,0,0.378538,-34.4656,-12.4433)">
        <path d="M144.11,80.96C150.94,76.91 159.31,76.73 166.91,78.2C171.32,78.41 175.65,79.24 179.97,80.09C189.06,81.35 198.27,80.31 207.17,78.21C208.53,79.52 208.42,81.3 208.26,83.02C206.87,83.73 205.49,84.45 204.06,85.06C197.96,87.77 191.44,89.64 184.73,89.8C181.14,89.89 177.56,89.49 173.98,89.54C171.48,89.35 170.41,92.05 169.07,93.62C163.13,91.32 157.84,87.73 152.48,84.35C150.73,83.05 148.47,83.5 146.45,83.48C146.44,85.41 146.12,87.64 147.83,89.01C153.87,95.24 160.72,100.64 167.5,106.05C166.96,109.29 166.54,112.55 166.4,115.83C159.48,116.14 152.55,116.07 145.64,115.63C145.51,113.85 145.38,112.07 145.27,110.29C148.25,108.25 154.81,107.33 153.53,102.45C150.92,98.82 146.17,101.14 142.7,101.89C141.14,100.65 139.82,98.73 137.73,98.43C135.4,98.49 133.25,99.57 131.07,100.27C125.79,102.23 120.14,102.79 114.55,102.25C113.92,101.96 112.65,101.39 112.02,101.11C111.79,99.44 112.37,97.7 113.97,96.94C117.46,95.12 121.57,95 125.06,93.12C131.78,89.69 137.78,85.03 144.11,80.96Z" style="fill:rgb(0,172,254);fill-rule:nonzero;"></path>
    </g>
    <g transform="matrix(0.378538,0,0,0.378538,-34.4656,-12.4433)">
        <path d="M92.33,99.72C94.18,102.21 95,105.49 97.69,107.32C106.51,113.9 117.45,116.7 128.1,118.69C118.6,118.89 109.36,115.89 100.69,112.28C95.71,110.22 91.39,105.45 92.33,99.72Z" style="fill:rgb(0,172,254);fill-rule:nonzero;"></path>
    </g>
    <g transform="matrix(0.378538,0,0,0.378538,-34.4656,-12.4433)">
        <path d="M151.88,124.58C156.54,124.25 161.06,123 165.65,122.2C165.53,124.47 165.38,126.75 165.17,129.02C164.22,132.07 163.9,135.94 160.82,137.68C158.5,139.04 155.57,137.93 153.93,136.03C151.09,133.16 150.04,129.19 148.3,125.68C149.41,125.07 150.59,124.57 151.88,124.58Z" style="fill:rgb(0,172,254);fill-rule:nonzero;"></path>
    </g>
    <g transform="matrix(0.378538,0,0,0.378538,-34.4656,-12.4433)">
        <path d="M184.25,58.32C185.34,58.36 186.44,58.41 187.54,58.47C187.44,59.44 187.35,60.41 187.25,61.38C184.94,61.94 184.16,60.45 184.25,58.32Z" style="fill:rgb(255,132,4);fill-rule:nonzero;"></path>
    </g>
    <g transform="matrix(0.378538,0,0,0.378538,-34.4656,-12.4433)">
        <path d="M173.18,69.88C173.04,67.82 176.12,64.94 177.82,67.11C178.54,67.89 179.15,68.76 179.78,69.62C178.56,70.77 177.31,71.88 176.02,72.95C175.05,71.95 173.93,71.07 173.18,69.88Z" style="fill:rgb(255,132,4);fill-rule:nonzero;"></path>
    </g>
    <g transform="matrix(0.378538,0,0,0.378538,-34.4656,-12.4433)">
        <path d="M190.64,70.52C193.26,67.39 199.24,68.94 199.64,73.09C200.16,75.29 198.78,77.09 197.41,78.61C195.52,78.73 193.64,78.75 191.76,78.59C191,77.72 190.24,76.87 189.47,76.02C189.6,74.15 188.91,71.85 190.64,70.52Z" style="fill:rgb(255,132,4);fill-rule:nonzero;"></path>
    </g>
    <g transform="matrix(0.378538,0,0,0.378538,-34.4656,-12.4433)">
        <path d="M219.45,81.27C220.43,83.54 221.98,85.93 221.29,88.5C220.58,90.68 219.54,92.74 218.78,94.9L217.98,95.15C217.68,95.15 217.08,95.14 216.78,95.14C219.84,91.15 219.67,86.02 219.45,81.27Z" style="fill:rgb(255,132,4);fill-rule:nonzero;"></path>
    </g>
    <g transform="matrix(0.378538,0,0,0.378538,-34.4656,-12.4433)">
        <path d="M146.45,83.48C148.47,83.5 150.73,83.05 152.48,84.35C157.84,87.73 163.13,91.32 169.07,93.62C174.49,96.31 180.97,94.31 184.73,89.8C191.44,89.64 197.96,87.77 204.06,85.06C205.26,89.17 208.11,93.48 207.13,97.76C202.71,101.44 197.47,103.94 192.24,106.25C193.79,105.96 195.31,105.51 196.86,105.22C200.76,106.02 204.4,103.91 208.3,104.13C207.93,116.76 202.04,129.19 192.23,137.21C189.06,139.66 185.43,142.45 181.17,141.76C181.26,135.14 182.84,128.65 183.44,122.07C183.7,120.46 183.44,118.69 184.26,117.22C186.26,115.72 189.03,115.43 190.64,113.37C191.71,113 192.78,112.63 193.86,112.27C190.63,112.91 187.38,113.45 184.12,113.89C183.27,108.5 189.24,106.16 189.99,101.19C185.71,104.79 180.98,108.99 175,108.76C172.19,109.07 169.68,107.64 167.5,106.05C160.72,100.64 153.87,95.24 147.83,89.01C146.12,87.64 146.44,85.41 146.45,83.48Z" style="fill:rgb(255,132,4);fill-rule:nonzero;"></path>
    </g>
    <g transform="matrix(0.378538,0,0,0.378538,-34.4656,-12.4433)">
        <path d="M115.66,91.29C113.58,87.74 118.12,82.82 121.68,85.19C124.65,86.18 123.8,89.79 123.51,92.15C121.18,94.05 117.19,94.33 115.66,91.29Z" style="fill:rgb(255,132,4);fill-rule:nonzero;"></path>
    </g>
    <g transform="matrix(0.378538,0,0,0.378538,-34.4656,-12.4433)">
        <path d="M114.55,102.25C120.14,102.79 125.79,102.23 131.07,100.27C134.15,103.4 138.82,102.73 142.7,101.89C146.17,101.14 150.92,98.82 153.53,102.45C154.81,107.33 148.25,108.25 145.27,110.29C142.98,111.43 141.05,113.14 139.4,115.07C129.04,113.93 118.58,112.38 108.85,108.49C110.27,106.29 111.92,104.27 113.52,102.21L114.55,102.25Z" style="fill:rgb(255,132,4);fill-rule:nonzero;"></path>
    </g>
    <g transform="matrix(0.378538,0,0,0.378538,-34.4656,-12.4433)">
        <path d="M116.9,125.35C124.42,124.87 131.97,127.71 139.39,125.48C141.53,129.78 141.87,134.7 143.6,139.17C142.44,141.73 139.73,143.16 136.98,142.16C128.35,139.81 120.68,133.49 116.9,125.35Z" style="fill:rgb(255,132,4);fill-rule:nonzero;"></path>
    </g>
    <g transform="matrix(0.378538,0,0,0.378538,-34.4656,-12.4433)">
        <path d="M207.97,76.4C212.45,76.3 216.97,77.87 220.48,80.65C224.85,84.41 223.51,92.14 218.78,94.9C219.54,92.74 220.58,90.68 221.29,88.5C221.98,85.93 220.43,83.54 219.45,81.27C219.67,86.02 219.84,91.15 216.78,95.14C217.08,95.14 217.68,95.15 217.98,95.15C218.19,95.3 218.61,95.6 218.82,95.75C214.68,98.02 210.61,100.43 206.19,102.16C203.14,103.35 199.96,104.17 196.86,105.22C195.31,105.51 193.79,105.96 192.24,106.25C197.47,103.94 202.71,101.44 207.13,97.76C209.76,95.51 212.3,93.04 213.89,89.92C216.6,84.58 213.24,78.45 207.97,76.4Z" style="fill:rgb(1,62,89);fill-rule:nonzero;"></path>
    </g>
    <g transform="matrix(0.378538,0,0,0.378538,-34.4656,-12.4433)">
        <path d="M91.5,98.36C92.6,95 95.34,92.45 98.37,90.78L99.9,90.29C98.1,93.6 95.89,97.87 98.57,101.37C101.16,104.76 105,106.83 108.85,108.49C118.58,112.38 129.04,113.93 139.4,115.07C141.48,115.3 143.56,115.49 145.64,115.63C152.55,116.07 159.48,116.14 166.4,115.83C172.35,115.68 178.25,114.86 184.12,113.89C187.38,113.45 190.63,112.91 193.86,112.27C192.78,112.63 191.71,113 190.64,113.37C166.58,121.83 140.21,124.02 115.2,118.8C107.87,116.97 100.01,115 94.4,109.63C91.24,106.9 90.42,102.25 91.5,98.36M92.33,99.72C91.39,105.45 95.71,110.22 100.69,112.28C109.36,115.89 118.6,118.89 128.1,118.69C117.45,116.7 106.51,113.9 97.69,107.32C95,105.49 94.18,102.21 92.33,99.72Z" style="fill:rgb(1,62,89);fill-rule:nonzero;"></path>
    </g>
</svg>